<svg height="512" viewBox="0 0 64 64" width="512" xmlns="http://www.w3.org/2000/svg"><g id="computer-teacher-learning-online_education-online_learning" data-name="computer-teacher-learning-online education-online learning"><path d="m57 2h-50a5 5 0 0 0 -5 5v36a5 5 0 0 0 5 5h19v6h-6a3.009 3.009 0 0 0 -3 3v4a1 1 0 0 0 1 1h28a1 1 0 0 0 1-1v-4a3.009 3.009 0 0 0 -3-3h-6v-6h19a5 5 0 0 0 5-5v-36a5 5 0 0 0 -5-5zm-13 54a1 1 0 0 1 1 1v3h-26v-3a1 1 0 0 1 1-1zm-16-2v-6h8v6zm32-11a3.009 3.009 0 0 1 -3 3h-50a3.009 3.009 0 0 1 -3-3v-3h56zm-31.73-26.96a.955.955 0 0 0 -.82.13l-5.75 3.83h-.7v-1a11 11 0 0 1 22 0v1h-.86zm12.73 5.71v.25h-2.18a3.121 3.121 0 0 0 -.64-1.05zm-4 1.25a1 1 0 1 1 -1-1 1 1 0 0 1 1 1zm-14-1.46 5.17-3.45 7.07 2.02a2.984 2.984 0 0 0 -2.06 1.89h-2.36a2.988 2.988 0 0 0 -5.64 0h-2.18zm6 1.46a1 1 0 1 1 -1-1 1 1 0 0 1 1 1zm-3.82 1a2.988 2.988 0 0 0 5.64 0h2.36a2.988 2.988 0 0 0 5.64 0h2.12a9 9 0 0 1 -17.88 0zm-7.18 14v-1a3.009 3.009 0 0 1 3-3h22a3.009 3.009 0 0 1 3 3v1zm42 0h-12v-1a5 5 0 0 0 -5-5h-4.7a10.976 10.976 0 0 0 4.7-9v-1h1a1 1 0 0 0 1-1v-2a13 13 0 0 0 -26 0v2a1 1 0 0 0 1 1h1v1a10.976 10.976 0 0 0 4.7 9h-4.7a5 5 0 0 0 -5 5v1h-12v-31a3.009 3.009 0 0 1 3-3h50a3.009 3.009 0 0 1 3 3z"/><path d="m54 42h2v2h-2z"/><path d="m50 42h2v2h-2z"/><path d="m30 28h4v2h-4z"/></g></svg>