<svg aria-hidden="true" style="position: absolute; width: 0; height: 0; overflow: hidden;" version="1.1" xmlns="http://www.w3.org/2000/svg" xmlns:xlink="http://www.w3.org/1999/xlink">
<defs>
<symbol id="icon-home" viewBox="0 0 32 32">
<path d="M32 18.451l-16-12.42-16 12.42v-5.064l16-12.42 16 12.42zM28 18v12h-8v-8h-8v8h-8v-12l12-9z"></path>
</symbol>
<symbol id="icon-lifebuoy" viewBox="0 0 32 32">
<path d="M16 0c-8.837 0-16 7.163-16 16s7.163 16 16 16 16-7.163 16-16-7.163-16-16-16zM10 16c0-3.314 2.686-6 6-6s6 2.686 6 6-2.686 6-6 6-6-2.686-6-6zM28.937 21.359v0l-5.544-2.297c0.391-0.943 0.608-1.977 0.608-3.062s-0.216-2.119-0.608-3.062l5.544-2.297c0.685 1.651 1.063 3.46 1.063 5.359s-0.379 3.708-1.063 5.359v0zM21.359 3.063v0 0l-2.297 5.544c-0.943-0.391-1.977-0.607-3.062-0.607s-2.119 0.216-3.062 0.607l-2.297-5.544c1.651-0.684 3.46-1.063 5.359-1.063s3.708 0.379 5.359 1.063zM3.063 10.641l5.544 2.297c-0.391 0.943-0.608 1.977-0.608 3.062s0.216 2.119 0.607 3.062l-5.544 2.297c-0.685-1.651-1.063-3.46-1.063-5.359s0.379-3.708 1.063-5.359zM10.641 28.937l2.297-5.544c0.943 0.391 1.977 0.608 3.062 0.608s2.119-0.216 3.062-0.608l2.297 5.544c-1.651 0.684-3.46 1.063-5.359 1.063s-3.708-0.379-5.359-1.063z"></path>
</symbol>
<symbol id="icon-box-remove" viewBox="0 0 32 32">
<path d="M26 2h-20l-6 6v21c0 0.552 0.448 1 1 1h30c0.552 0 1-0.448 1-1v-21l-6-6zM20 20v6h-8v-6h-6l10-8 10 8h-6zM4.828 6l2-2h18.343l2 2h-22.343z"></path>
</symbol>
<symbol id="icon-user-check" viewBox="0 0 32 32">
<path d="M30 19l-9 9-3-3-2 2 5 5 11-11z"></path>
<path d="M14 24h10v-3.598c-2.101-1.225-4.885-2.066-8-2.321v-1.649c2.203-1.242 4-4.337 4-7.432 0-4.971 0-9-6-9s-6 4.029-6 9c0 3.096 1.797 6.191 4 7.432v1.649c-6.784 0.555-12 3.888-12 7.918h14v-2z"></path>
</symbol>
<symbol id="icon-search" viewBox="0 0 32 32">
<path d="M31.008 27.231l-7.58-6.447c-0.784-0.705-1.622-1.029-2.299-0.998 1.789-2.096 2.87-4.815 2.87-7.787 0-6.627-5.373-12-12-12s-12 5.373-12 12 5.373 12 12 12c2.972 0 5.691-1.081 7.787-2.87-0.031 0.677 0.293 1.515 0.998 2.299l6.447 7.58c1.104 1.226 2.907 1.33 4.007 0.23s0.997-2.903-0.23-4.007zM12 20c-4.418 0-8-3.582-8-8s3.582-8 8-8 8 3.582 8 8-3.582 8-8 8z"></path>
</symbol>
<symbol id="icon-menu" viewBox="0 0 32 32">
<path d="M2 6h28v6h-28zM2 14h28v6h-28zM2 22h28v6h-28z"></path>
</symbol>
<symbol id="icon-enter" viewBox="0 0 32 32">
<path d="M12 16h-10v-4h10v-4l6 6-6 6zM32 0v26l-12 6v-6h-12v-8h2v6h10v-18l8-4h-18v8h-2v-10z"></path>
</symbol>
<symbol id="icon-exit" viewBox="0 0 32 32">
<path d="M24 20v-4h-10v-4h10v-4l6 6zM22 18v8h-10v6l-12-6v-26h22v10h-2v-8h-16l8 4v18h8v-6z"></path>
</symbol>
<symbol id="icon-click" viewBox="0 0 512 512">
<path d="M459.15 269.75a133.197 133.197 0 0 1-55.862 179.975l-42.782 22.541-10.52 5.533a71.277 71.277 0 0 1-62.966 1.685l-167.077-71.38 15.733-46.676 99.363 19.194-51.458-97.78-82.843-157.411 40.357-21.232 82.844 157.457 19.934-10.485-36.521-69.445 40.335-21.22 36.52 69.445 19.935-10.485-28.2-53.598 40.358-21.232 28.2 53.598 19.945-10.576-19.354-36.886 40.346-21.174 19.354 36.885 54.348 103.301zM73.268 146.674a60.03 60.03 0 0 1 42.361-102.459 60.098 60.098 0 0 1 56.58 80.169l10.588 20.013A78.29 78.29 0 0 0 115.708 26a78.233 78.233 0 0 0-5.635 156.262L99.428 162.02a59.688 59.688 0 0 1-26.16-15.346z"></path>
</symbol>
</defs>
</svg>
